<svg xmlns="http://www.w3.org/2000/svg" viewBox="0 0 128.8733063 128.8668976">
	<style type="text/css">
		.st0 {
			fill: #5009B5;
		}

		.st1 {
			fill: #44B8F3;
		}

		.st2 {
			fill: #794CFF;
		}

		.st3 {
			fill: #00BBBA;
		}
	</style>
	<g id="Symbol">
		<path id="Purple" class="st0" d="M31.0935249,0C13.9210176,0,0,13.9210787,0,31.093586
      s13.9210176,31.0827599,31.0935249,31.0827599c1.6294975,0,3.598526-0.1420593,5.1527786-0.4103584l1.1055031,2.6603813
      l-6.2297783,15.1253281c2.0599899,0.0030518,4.1545296,0.3580475,6.2021294,1.103302
      c1.4527321,0.5287628,2.7971916,1.2233582,4.0201225,2.0541916l7.5283356-18.2828217l-7.4849396-18.3018112
      c-4.6828003,3.2012558-10.7876949,4.1755219-16.5247231,2.0873947
      c-9.4542255-3.4410057-14.328804-13.8947105-10.8877954-23.348938
      c3.4410677-9.4541645,13.8947725-14.328804,23.348938-10.8877344
      c7.4066238,2.6957483,12.0022659,9.6955042,11.9910965,17.1468697l12.4392281,5.1232414
      c0.2796707-1.6764946,0.4326286-3.3959007,0.4326286-5.1518059C62.1870499,13.9210787,48.2660294,0,31.0935249,0z" />
		<path id="Cyan" class="st1" d="M97.7797165,0.0000231c-17.1725082,0-31.0935898,13.9210787-31.0935898,31.093586
      c0,1.6294975,0.1518784,3.5970383,0.4216995,5.1527519l-2.670105,1.1043701l-15.1225281-6.2282524
      c-0.0031128,2.0598679-0.3580437,4.1542854-1.103302,6.2017632c-0.5284576,1.4519424-1.2226257,2.7956657-2.0528488,4.0180473
      l18.2786789,7.5292511l18.3110199-7.4838409c-3.2012558-4.6828003-4.1755219-10.7876339-2.0873947-16.5246601
      c3.4410095-9.4542274,13.8946533-14.328866,23.348877-10.8877974
      c9.4542236,3.4410086,14.3288651,13.8947115,10.8877945,23.348877
      c-2.6957474,7.4066238-9.6955032,12.002327-17.1468658,11.9911575l-5.1262436,12.439167
      c1.6764984,0.2797318,3.3989029,0.4326897,5.154808,0.4326897c17.1725082,0,31.0935898-13.9210777,31.0935898-31.0935249
      C128.8733063,13.9211016,114.9522247,0.0000231,97.7797165,0.0000231z" />
		<path id="Light_Purple" class="st2" d="M64.4377213,79.9947052l-18.3131638,7.4845047
      c3.2012558,4.6827469,4.1754608,10.7876968,2.0873947,16.5247269
      c-3.4410667,9.4541626-13.8947105,14.328804-23.348938,10.8877335
      c-9.4542255-3.4410019-14.3288651-13.8947067-10.8877954-23.348938
      c2.6958094-7.4065628,9.6955652-12.0022659,17.1469307-11.9910355l5.1231804-12.4392242
      c-1.6764946-0.2796707-3.3958397-0.4363251-5.1518059-0.4363251C13.9210787,66.6761475,0,80.6008606,0,97.7733078
      c0,17.1725006,13.9210787,31.0935898,31.0935249,31.0935898c17.1725044,0,31.0934906-13.9210892,31.0934906-31.0935898
      c0-1.6294403-0.1385651-3.5054779-0.426548-5.15271l2.6772537-1.1044159l15.1203842,6.2288666
      c0.0030518-2.060051,0.3579865-4.1545944,1.103302-6.2023163c0.5284576-1.4519424,1.2226257-2.795723,2.0528488-4.0181046
      L64.4377213,79.9947052z" />
		<path id="Turquoise" class="st3" d="M97.7797165,66.676178c-1.6294403,0-3.5796967,0.1525803-5.1548004,0.4254303
      l-1.1023254-2.672493l6.2281952-15.1138611c-2.0598679-0.0031128-4.1541672-0.3581047-6.2016449-1.103302
      c-1.4527359-0.5287628-2.7971878-1.2233582-4.0201187-2.0542526l-7.5278473,18.2714157l7.4844437,18.3132172
      c4.6827469-3.2012558,10.7876968-4.1755219,16.5247269-2.0873947c9.4541626,3.4410095,14.328804,13.8947144,10.8877335,23.348938
      c-3.4410019,9.4541626-13.8947067,14.328804-23.348877,10.8877335
      c-7.4066238-2.6957474-12.0022659-9.6955643-11.9910965-17.1468658l-12.4392242-5.123291
      c-0.2796707,1.6764984-0.4327621,3.3959503-0.4327621,5.1518555c0,17.1725006,13.9211502,31.0935898,31.0935974,31.0935898
      c17.1725693,0,31.0935898-13.9210892,31.0935898-31.0935898S114.9522858,66.676178,97.7797165,66.676178z" />
	</g>
</svg>
