<svg width="2758" height="1114" xmlns="http://www.w3.org/2000/svg" xmlns:xlink="http://www.w3.org/1999/xlink" xml:space="preserve" overflow="hidden"><g transform="translate(105 -1998)"><g><path d="M122 2301.87C122 2261.07 155.072 2228 195.868 2228L572.132 2228C612.928 2228 646 2261.07 646 2301.87L646 2678.13C646 2718.93 612.928 2752 572.132 2752L195.868 2752C155.072 2752 122 2718.93 122 2678.13Z" fill="#794CFF" fill-rule="evenodd" fill-opacity="1"/><text fill="#FFFFFF" fill-opacity="1" font-family="Elevance Sans,Elevance Sans_MSFontService,sans-serif" font-style="normal" font-variant="normal" font-weight="700" font-stretch="normal" font-size="527" text-anchor="start" direction="ltr" writing-mode="lr-tb" unicode-bidi="normal" text-decoration="none" transform="matrix(1 0 0 1 212.465 2664)">D</text><path d="M191 2369.5C191 2311.79 237.786 2265 295.5 2265 353.214 2265 400 2311.79 400 2369.5 400 2427.21 353.214 2474 295.5 2474 237.786 2474 191 2427.21 191 2369.5Z" fill="#794CFF" fill-rule="evenodd" fill-opacity="1"/><path d="M249 2370C249 2346.25 268.252 2327 292 2327 315.748 2327 335 2346.25 335 2370 335 2393.75 315.748 2413 292 2413 268.252 2413 249 2393.75 249 2370Z" fill="#FFFFFF" fill-rule="evenodd" fill-opacity="1"/><text fill="#794CFF" fill-opacity="1" font-family="Elevance Sans Medium,Elevance Sans Medium_MSFontService,sans-serif" font-style="normal" font-variant="normal" font-weight="700" font-stretch="normal" font-size="440" text-anchor="start" direction="ltr" writing-mode="lr-tb" unicode-bidi="normal" text-decoration="none" transform="matrix(1 0 0 1 686.523 2667)">iscovery</text></g></g></svg>