<svg width="67" height="71" viewBox="0 0 67 71" fill="none" xmlns="http://www.w3.org/2000/svg">
  <path fill-rule="evenodd" clip-rule="evenodd"
    d="M0.693876 53.8315V71H19.5238H23.2782H26.502C49.6517 71 66.7095 56.0468 66.7095 35.6661C66.7095 15.064 49.6517 0 26.502 0H0.693876V17.1685H19.5238H26.1697C38.7968 17.1685 47.1042 24.4789 47.1042 35.4446C47.1042 46.5211 38.7968 53.8315 26.2805 53.8315H23.2782V70.9957L19.5238 71V48.9676V41.5256L0.693876 41.4624V41.5731V48.9676V53.8315ZM0.693876 33.4535C2.14842 37.1476 5.73494 39.7369 9.9688 39.7369C15.507 39.7369 20.0484 35.3064 20.0484 29.7681C20.0484 24.2299 15.507 19.6886 9.9688 19.6886C5.73494 19.6886 2.14842 22.3427 0.693876 26.0672C0.245762 27.2147 0 28.4638 0 29.7681C0 31.0725 0.245762 32.3154 0.693876 33.4535Z"
    fill="url(#paint0_linear_884_4167)" />
  <defs>
    <linearGradient id="paint0_linear_884_4167" x1="33.3547" y1="0" x2="33.3547" y2="71" gradientUnits="userSpaceOnUse">
      <stop stop-color="#44B8F3" />
      <stop offset="1" stop-color="#794CFF" />
    </linearGradient>
  </defs>
</svg>
