<svg width="575" height="129" viewBox="0 0 575 129" fill="none" xmlns="http://www.w3.org/2000/svg">
<path d="M532.215 101.56L532.792 99.8314L501.243 29.8199H520.547L540.715 77.3586L557.281 29.8199H575L546.765 107.61C541.435 122.736 532.647 128.931 521.123 128.931C513.776 128.931 506.717 125.906 502.252 121.728L510.175 107.899C513.488 111.068 517.233 112.508 521.267 112.508C526.165 112.508 529.334 109.627 532.215 101.56Z" fill="#5009B5"/>
<path d="M451.196 98.8243V29.8213H468.771V40.0493C472.084 32.7024 477.991 27.9485 485.77 27.9485C490.38 27.9485 494.125 29.101 496.718 31.2618L489.515 47.8283C487.21 46.0997 483.753 44.9472 480.296 44.9472C473.381 44.9472 468.771 50.8535 468.771 60.2172V98.8243H451.196Z" fill="#5009B5"/>
<path d="M411.753 100.697C390.289 100.697 374.731 84.4187 374.731 64.2508C374.731 44.2269 389.569 27.9485 409.449 27.9485C429.184 27.9485 444.31 43.0745 444.31 62.9543C444.31 65.2592 444.166 67.9962 443.878 69.1487H392.738C394.611 78.6564 401.814 85.283 412.33 85.283C419.388 85.283 425.295 82.2578 429.328 78.0802L438.404 90.1809C433.074 96.0872 423.278 100.697 411.753 100.697ZM409.737 42.7864C401.381 42.7864 395.331 48.5486 393.17 56.9039H426.159C423.998 47.6843 417.804 42.7864 409.737 42.7864Z" fill="#5009B5"/>
<path d="M353.15 98.823H330.245L305.323 29.8199H324.626L342.201 83.1208L360.064 29.8199H378.071L353.15 98.823Z" fill="#5009B5"/>
<path d="M272.65 100.697C252.626 100.697 236.78 84.4187 236.78 64.2508C236.78 44.2269 252.626 27.9485 272.65 27.9485C292.674 27.9485 308.52 44.2269 308.52 64.2508C308.52 84.4187 292.674 100.697 272.65 100.697ZM272.65 84.2746C283.31 84.2746 290.945 75.3431 290.945 64.2508C290.945 53.1584 283.31 44.371 272.65 44.371C261.99 44.371 254.355 53.1584 254.355 64.2508C254.355 75.3431 261.99 84.2746 272.65 84.2746Z" fill="#5009B5"/>
<path d="M229.191 50.7095C224.725 46.5318 219.683 44.371 212.768 44.371C201.244 44.371 193.609 53.1584 193.609 64.2508C193.609 75.3431 201.388 84.2746 212.768 84.2746C219.683 84.2746 225.301 81.8257 229.767 77.504L238.698 90.469C233.224 96.5194 223.14 100.697 212.336 100.697C191.736 100.697 176.034 84.4187 176.034 64.2508C176.034 44.2269 191.88 27.9485 212.048 27.9485C223.716 27.9485 233.08 31.8381 239.274 38.1765L229.191 50.7095Z" fill="#5009B5"/>
<path d="M143.604 100.697C132.511 100.697 123.436 97.8159 116.665 94.0704L122.283 80.5291C130.206 84.2746 136.833 86.2914 144.468 86.2914C152.247 86.2914 155.848 83.5543 155.848 79.5207C155.848 67.1319 118.682 74.4788 118.682 48.4046C118.682 38.0325 127.901 27.9485 145.62 27.9485C155.272 27.9485 162.619 29.9653 171.406 34.143L164.924 47.2521C160.026 44.515 152.679 42.3542 147.061 42.3542C140.434 42.3542 136.401 44.515 136.401 48.2605C136.401 60.9375 173.279 53.0144 173.279 79.2326C173.279 91.1893 162.619 100.697 143.604 100.697Z" fill="#5009B5"/>
<path d="M101.137 20.6001C95.3744 20.6001 90.9087 15.9903 90.9087 10.228C90.9087 4.60981 95.3744 0 101.137 0C106.755 0 111.509 4.60981 111.509 10.228C111.509 15.9903 106.755 20.6001 101.137 20.6001ZM109.924 98.8227H92.3493V29.8197H109.924V98.8227Z" fill="#5009B5"/>
<path d="M0.662598 98.8242V81.8255V23.6058V23.4826V6.62802H0.851162H31.4907C61.8866 6.62802 83.6391 25.7875 83.6391 52.7261C83.6391 79.6646 62.1747 98.8242 32.0669 98.8242H19.595H0.851162H0.662598ZM31.3466 23.4826L0.662598 23.6058V49.8444H19.2459V98.8242H22.9092V81.9327L31.4907 81.8255C51.2264 81.8255 64.3355 70.301 64.3355 52.7261C64.3355 35.0071 51.2264 23.4826 31.3466 23.4826Z" fill="#5009B5"/>
<path fill-rule="evenodd" clip-rule="evenodd" d="M10.3901 48.1846C16.1284 48.1846 20.7802 43.5328 20.7802 37.7945C20.7802 32.0562 16.1284 27.4044 10.3901 27.4044C4.6518 27.4044 0 32.0562 0 37.7945C0 43.5328 4.6518 48.1846 10.3901 48.1846ZM19.2233 49.7143H0.663619V98.7649H19.2233V49.7143Z" fill="url(#paint0_linear_884_4174)"/>
<defs>
<linearGradient id="paint0_linear_884_4174" x1="10.3901" y1="27.4044" x2="10.3901" y2="98.7649" gradientUnits="userSpaceOnUse">
<stop stop-color="#44B8F3"/>
<stop offset="1" stop-color="#794CFF"/>
</linearGradient>
</defs>
</svg>
